tiny5.ufo
<glyph name="comma" format="2">
  <advance width="384"/>
  <unicode hex="002C"/>
  <anchor x="0" y="128" name="_right-top"/>
  <outline>
    <contour>
      <point x="128" y="0" type="line"/>
      <point x="128" y="128" type="line"/>
      <point x="256" y="128" type="line"/>
      <point x="256" y="0" type="line"/>
    </contour>
    <contour>
      <point x="0" y="-128" type="line"/>
      <point x="0" y="0" type="line"/>
      <point x="128" y="0" type="line"/>
      <point x="128" y="-128" type="line"/>
    </contour>
  </outline>
</glyph>
<glyph name="one" format="2">
  <advance width="512"/>
  <unicode hex="0031"/>
  <outline>
    <contour>
      <point x="256" y="0" type="line"/>
      <point x="128" y="0" type="line"/>
      <point x="128" y="384" type="line"/>
      <point x="0" y="384" type="line"/>
      <point x="0" y="512" type="line"/>
      <point x="128" y="512" type="line"/>
      <point x="128" y="640" type="line"/>
      <point x="256" y="640" type="line"/>
    </contour>
  </outline>
</glyph>
<glyph name="I" format="2">
  <advance width="256"/>
  <unicode hex="0049"/>
  <anchor x="0" y="0" name="foot"/>
  <anchor x="0" y="640" name="top"/>
  <anchor x="0" y="0" name="bottom"/>
  <outline>
    <contour>
      <point x="128" y="0" type="line"/>
      <point x="0" y="0" type="line"/>
      <point x="0" y="640" type="line"/>
      <point x="128" y="640" type="line"/>
    </contour>
  </outline>
</glyph>
<glyph name="J" format="2">
  <advance width="512"/>
  <unicode hex="004A"/>
  <anchor x="128" y="640" name="top"/>
  <anchor x="128" y="0" name="bottom"/>
  <outline>
    <contour>
      <point x="0" y="128" type="line"/>
      <point x="0" y="256" type="line"/>
      <point x="128" y="256" type="line"/>
      <point x="128" y="128" type="line"/>
    </contour>
    <contour>
      <point x="128" y="128" type="line"/>
      <point x="256" y="128" type="line"/>
      <point x="256" y="0" type="line"/>
      <point x="128" y="0" type="line"/>
    </contour>
    <contour>
      <point x="256" y="128" type="line"/>
      <point x="256" y="640" type="line"/>
      <point x="384" y="640" type="line"/>
      <point x="384" y="128" type="line"/>
    </contour>
  </outline>
</glyph>
<glyph name="L" format="2">
  <advance width="512"/>
  <unicode hex="004C"/>
  <anchor x="0" y="0" name="foot"/>
  <anchor x="128" y="640" name="top"/>
  <anchor x="128" y="0" name="bottom"/>
  <outline>
    <contour>
      <point x="384" y="128" type="line"/>
      <point x="384" y="0" type="line"/>
      <point x="0" y="0" type="line"/>
      <point x="0" y="640" type="line"/>
      <point x="128" y="640" type="line"/>
      <point x="128" y="128" type="line"/>
    </contour>
  </outline>
</glyph>
<glyph name="Q" format="2">
  <advance width="640"/>
  <unicode hex="0051"/>
  <anchor x="256" y="640" name="top"/>
  <anchor x="256" y="0" name="bottom"/>
  <outline>
    <contour>
      <point x="384" y="128" type="line"/>
      <point x="256" y="128" type="line"/>
      <point x="256" y="256" type="line"/>
      <point x="384" y="256" type="line"/>
    </contour>
    <contour>
      <point x="128" y="128" type="line"/>
      <point x="0" y="128" type="line"/>
      <point x="0" y="512" type="line"/>
      <point x="128" y="512" type="line"/>
    </contour>
    <contour>
      <point x="256" y="128" type="line"/>
      <point x="256" y="0" type="line"/>
      <point x="128" y="0" type="line"/>
      <point x="128" y="128" type="line"/>
    </contour>
    <contour>
      <point x="384" y="0" type="line"/>
      <point x="384" y="128" type="line"/>
      <point x="512" y="128" type="line"/>
      <point x="512" y="0" type="line"/>
    </contour>
    <contour>
      <point x="384" y="256" type="line"/>
      <point x="384" y="512" type="line"/>
      <point x="512" y="512" type="line"/>
      <point x="512" y="256" type="line"/>
    </contour>
    <contour>
      <point x="128" y="512" type="line"/>
      <point x="128" y="640" type="line"/>
      <point x="384" y="640" type="line"/>
      <point x="384" y="512" type="line"/>
    </contour>
  </outline>
</glyph>
<glyph name="U" format="2">
  <advance width="640"/>
  <unicode hex="0055"/>
  <anchor x="384" y="0" name="foot"/>
  <anchor x="256" y="640" name="top"/>
  <anchor x="256" y="0" name="bottom"/>
  <outline>
    <contour>
      <point x="128" y="128" type="line"/>
      <point x="0" y="128" type="line"/>
      <point x="0" y="640" type="line"/>
      <point x="128" y="640" type="line"/>
    </contour>
    <contour>
      <point x="384" y="128" type="line"/>
      <point x="384" y="0" type="line"/>
      <point x="128" y="0" type="line"/>
      <point x="128" y="128" type="line"/>
    </contour>
    <contour>
      <point x="512" y="128" type="line"/>
      <point x="384" y="128" type="line"/>
      <point x="384" y="640" type="line"/>
      <point x="512" y="640" type="line"/>
    </contour>
  </outline>
</glyph>
<glyph name="W" format="2">
  <advance width="768"/>
  <unicode hex="0057"/>
  <anchor x="256" y="640" name="top"/>
  <anchor x="256" y="0" name="bottom"/>
  <outline>
    <contour>
      <point x="256" y="0" type="line"/>
      <point x="128" y="0" type="line"/>
      <point x="128" y="256" type="line"/>
      <point x="256" y="256" type="line"/>
    </contour>
    <contour>
      <point x="512" y="0" type="line"/>
      <point x="384" y="0" type="line"/>
      <point x="384" y="256" type="line"/>
      <point x="512" y="256" type="line"/>
    </contour>
    <contour>
      <point x="128" y="256" type="line"/>
      <point x="0" y="256" type="line"/>
      <point x="0" y="640" type="line"/>
      <point x="128" y="640" type="line"/>
    </contour>
    <contour>
      <point x="256" y="256" type="line"/>
      <point x="256" y="640" type="line"/>
      <point x="384" y="640" type="line"/>
      <point x="384" y="256" type="line"/>
    </contour>
    <contour>
      <point x="512" y="256" type="line"/>
      <point x="512" y="640" type="line"/>
      <point x="640" y="640" type="line"/>
      <point x="640" y="256" type="line"/>
    </contour>
  </outline>
</glyph>
<glyph name="X" format="2">
  <advance width="512"/>
  <unicode hex="0058"/>
  <anchor x="128" y="640" name="top"/>
  <anchor x="128" y="0" name="bottom"/>
  <outline>
    <contour>
      <point x="128" y="0" type="line"/>
      <point x="0" y="0" type="line"/>
      <point x="0" y="256" type="line"/>
      <point x="128" y="256" type="line"/>
    </contour>
    <contour>
      <point x="384" y="0" type="line"/>
      <point x="256" y="0" type="line"/>
      <point x="256" y="256" type="line"/>
      <point x="384" y="256" type="line"/>
    </contour>
    <contour>
      <point x="128" y="384" type="line"/>
      <point x="0" y="384" type="line"/>
      <point x="0" y="640" type="line"/>
      <point x="128" y="640" type="line"/>
    </contour>
    <contour>
      <point x="256" y="384" type="line"/>
      <point x="256" y="256" type="line"/>
      <point x="128" y="256" type="line"/>
      <point x="128" y="384" type="line"/>
    </contour>
    <contour>
      <point x="384" y="384" type="line"/>
      <point x="256" y="384" type="line"/>
      <point x="256" y="640" type="line"/>
      <point x="384" y="640" type="line"/>
    </contour>
  </outline>
</glyph>
<glyph name="d" format="2">
  <advance width="512"/>
  <unicode hex="0064"/>
  <anchor x="256" y="0" name="foot"/>
  <anchor x="128" y="640" name="top"/>
  <anchor x="128" y="0" name="bottom"/>
  <outline>
    <contour>
      <point x="128" y="128" type="line"/>
      <point x="0" y="128" type="line"/>
      <point x="0" y="384" type="line"/>
      <point x="128" y="384" type="line"/>
    </contour>
    <contour>
      <point x="128" y="0" type="line"/>
      <point x="128" y="128" type="line"/>
      <point x="256" y="128" type="line"/>
      <point x="256" y="384" type="line"/>
      <point x="128" y="384" type="line"/>
      <point x="128" y="512" type="line"/>
      <point x="256" y="512" type="line"/>
      <point x="256" y="640" type="line"/>
      <point x="384" y="640" type="line"/>
      <point x="384" y="0" type="line"/>
    </contour>
  </outline>
</glyph>
<glyph name="f" format="2">
  <advance width="384"/>
  <unicode hex="0066"/>
  <anchor x="128" y="640" name="top"/>
  <anchor x="0" y="0" name="bottom"/>
  <outline>
    <contour>
      <point x="128" y="0" type="line"/>
      <point x="0" y="0" type="line"/>
      <point x="0" y="512" type="line"/>
      <point x="128" y="512" type="line"/>
      <point x="128" y="384" type="line"/>
      <point x="256" y="384" type="line"/>
      <point x="256" y="256" type="line"/>
      <point x="128" y="256" type="line"/>
    </contour>
    <contour>
      <point x="128" y="512" type="line"/>
      <point x="128" y="640" type="line"/>
      <point x="256" y="640" type="line"/>
      <point x="256" y="512" type="line"/>
    </contour>
  </outline>
</glyph>
<glyph name="g" format="2">
  <advance width="512"/>
  <unicode hex="0067"/>
  <anchor x="128" y="512" name="top"/>
  <anchor x="128" y="-128" name="bottom"/>
  <outline>
    <contour>
      <point x="0" y="0" type="line"/>
      <point x="128" y="0" type="line"/>
      <point x="128" y="128" type="line"/>
      <point x="256" y="128" type="line"/>
      <point x="256" y="384" type="line"/>
      <point x="128" y="384" type="line"/>
      <point x="128" y="512" type="line"/>
      <point x="384" y="512" type="line"/>
      <point x="384" y="0" type="line"/>
      <point x="256" y="0" type="line"/>
      <point x="256" y="-128" type="line"/>
      <point x="0" y="-128" type="line"/>
    </contour>
    <contour>
      <point x="128" y="128" type="line"/>
      <point x="0" y="128" type="line"/>
      <point x="0" y="384" type="line"/>
      <point x="128" y="384" type="line"/>
    </contour>
  </outline>
</glyph>
<glyph name="l" format="2">
  <advance width="256"/>
  <unicode hex="006C"/>
  <anchor x="0" y="0" name="foot"/>
  <anchor x="128" y="640" name="right-top"/>
  <anchor x="128" y="384" name="_right-middle"/>
  <anchor x="0" y="640" name="top"/>
  <anchor x="0" y="0" name="bottom"/>
  <outline>
    <contour>
      <point x="128" y="0" type="line"/>
      <point x="0" y="0" type="line"/>
      <point x="0" y="640" type="line"/>
      <point x="128" y="640" type="line"/>
    </contour>
  </outline>
</glyph>
<glyph name="m" format="2">
  <advance width="768"/>
  <unicode hex="006D"/>
  <anchor x="256" y="0" name="bottom"/>
  <anchor x="256" y="512" name="top"/>
  <outline>
    <contour>
      <point x="128" y="0" type="line"/>
      <point x="0" y="0" type="line"/>
      <point x="0" y="512" type="line"/>
      <point x="512" y="512" type="line"/>
      <point x="512" y="384" type="line"/>
      <point x="384" y="384" type="line"/>
      <point x="384" y="0" type="line"/>
      <point x="256" y="0" type="line"/>
      <point x="256" y="384" type="line"/>
      <point x="128" y="384" type="line"/>
    </contour>
    <contour>
      <point x="640" y="0" type="line"/>
      <point x="512" y="0" type="line"/>
      <point x="512" y="384" type="line"/>
      <point x="640" y="384" type="line"/>
    </contour>
  </outline>
</glyph>
<glyph name="r" format="2">
  <advance width="384"/>
  <unicode hex="0072"/>
  <anchor x="0" y="0" name="bottom"/>
  <anchor x="0" y="512" name="top"/>
  <outline>
    <contour>
      <point x="128" y="0" type="line"/>
      <point x="0" y="0" type="line"/>
      <point x="0" y="512" type="line"/>
      <point x="256" y="512" type="line"/>
      <point x="256" y="384" type="line"/>
      <point x="128" y="384" type="line"/>
    </contour>
  </outline>
</glyph>
<glyph name="s" format="2">
  <advance width="512"/>
  <unicode hex="0073"/>
  <anchor x="256" y="0" name="foot"/>
  <anchor x="128" y="0" name="bottom"/>
  <anchor x="128" y="512" name="top"/>
  <outline>
    <contour>
      <point x="256" y="128" type="line"/>
      <point x="256" y="0" type="line"/>
      <point x="0" y="0" type="line"/>
      <point x="0" y="128" type="line"/>
    </contour>
    <contour>
      <point x="384" y="128" type="line"/>
      <point x="256" y="128" type="line"/>
      <point x="256" y="256" type="line"/>
      <point x="384" y="256" type="line"/>
    </contour>
    <contour>
      <point x="128" y="384" type="line"/>
      <point x="128" y="512" type="line"/>
      <point x="384" y="512" type="line"/>
      <point x="384" y="384" type="line"/>
      <point x="256" y="384" type="line"/>
      <point x="256" y="256" type="line"/>
      <point x="0" y="256" type="line"/>
      <point x="0" y="384" type="line"/>
    </contour>
  </outline>
</glyph>
<glyph name="w" format="2">
  <advance width="768"/>
  <unicode hex="0077"/>
  <anchor x="256" y="0" name="bottom"/>
  <anchor x="256" y="512" name="top"/>
  <outline>
    <contour>
      <point x="256" y="0" type="line"/>
      <point x="128" y="0" type="line"/>
      <point x="128" y="256" type="line"/>
      <point x="256" y="256" type="line"/>
    </contour>
    <contour>
      <point x="512" y="0" type="line"/>
      <point x="384" y="0" type="line"/>
      <point x="384" y="256" type="line"/>
      <point x="512" y="256" type="line"/>
    </contour>
    <contour>
      <point x="128" y="256" type="line"/>
      <point x="0" y="256" type="line"/>
      <point x="0" y="512" type="line"/>
      <point x="128" y="512" type="line"/>
    </contour>
    <contour>
      <point x="256" y="256" type="line"/>
      <point x="256" y="512" type="line"/>
      <point x="384" y="512" type="line"/>
      <point x="384" y="256" type="line"/>
    </contour>
    <contour>
      <point x="512" y="256" type="line"/>
      <point x="512" y="512" type="line"/>
      <point x="640" y="512" type="line"/>
      <point x="640" y="256" type="line"/>
    </contour>
  </outline>
</glyph>
<glyph name="asciitilde" format="2">
  <advance width="384"/>
  <unicode hex="007E"/>
  <outline>
    <contour>
      <point x="0" y="256" type="line"/>
      <point x="0" y="384" type="line"/>
      <point x="256" y="384" type="line"/>
      <point x="256" y="256" type="line"/>
    </contour>
  </outline>
</glyph>
<glyph name="exclamdown" format="2">
  <advance width="256"/>
  <unicode hex="00A1"/>
  <outline>
    <contour>
      <point x="128" y="0" type="line"/>
      <point x="0" y="0" type="line"/>
      <point x="0" y="384" type="line"/>
      <point x="128" y="384" type="line"/>
    </contour>
    <contour>
      <point x="0" y="512" type="line"/>
      <point x="0" y="640" type="line"/>
      <point x="128" y="640" type="line"/>
      <point x="128" y="512" type="line"/>
    </contour>
  </outline>
</glyph>
<glyph name="mu" format="2">
  <advance width="512"/>
  <unicode hex="00B5"/>
  <outline>
    <contour>
      <point x="128" y="-128" type="line"/>
      <point x="0" y="-128" type="line"/>
      <point x="0" y="512" type="line"/>
      <point x="128" y="512" type="line"/>
      <point x="128" y="128" type="line"/>
      <point x="256" y="128" type="line"/>
      <point x="256" y="512" type="line"/>
      <point x="384" y="512" type="line"/>
      <point x="384" y="0" type="line"/>
      <point x="128" y="0" type="line"/>
    </contour>
  </outline>
</glyph>
<glyph name="periodcentered" format="2">
  <advance width="256"/>
  <unicode hex="00B7"/>
  <outline>
    <contour>
      <point x="0" y="256" type="line"/>
      <point x="0" y="384" type="line"/>
      <point x="128" y="384" type="line"/>
      <point x="128" y="256" type="line"/>
    </contour>
  </outline>
</glyph>
<glyph name="onehalf" format="2">
  <advance width="1280"/>
  <unicode hex="00BD"/>
  <outline>
    <contour>
      <point x="1024" y="128" type="line"/>
      <point x="1152" y="128" type="line"/>
      <point x="1152" y="0" type="line"/>
      <point x="768" y="0" type="line"/>
      <point x="768" y="128" type="line"/>
      <point x="896" y="128" type="line"/>
      <point x="896" y="256" type="line"/>
      <point x="1024" y="256" type="line"/>
    </contour>
    <contour>
      <point x="512" y="128" type="line"/>
      <point x="384" y="128" type="line"/>
      <point x="384" y="384" type="line"/>
      <point x="512" y="384" type="line"/>
    </contour>
    <contour>
      <point x="256" y="128" type="line"/>
      <point x="128" y="128" type="line"/>
      <point x="128" y="384" type="line"/>
      <point x="0" y="384" type="line"/>
      <point x="0" y="512" type="line"/>
      <point x="128" y="512" type="line"/>
      <point x="128" y="640" type="line"/>
      <point x="256" y="640" type="line"/>
    </contour>
    <contour>
      <point x="512" y="384" type="line"/>
      <point x="512" y="640" type="line"/>
      <point x="640" y="640" type="line"/>
      <point x="640" y="384" type="line"/>
    </contour>
    <contour>
      <point x="768" y="384" type="line"/>
      <point x="768" y="512" type="line"/>
      <point x="1024" y="512" type="line"/>
      <point x="1024" y="384" type="line"/>
    </contour>
    <contour>
      <point x="1024" y="384" type="line"/>
      <point x="1152" y="384" type="line"/>
      <point x="1152" y="256" type="line"/>
      <point x="1024" y="256" type="line"/>
    </contour>
  </outline>
</glyph>
<glyph name="Ocircumflex" format="2">
  <advance width="640"/>
  <unicode hex="00D4"/>
  <anchor x="256" y="1024" name="top"/>
  <anchor x="256" y="0" name="bottom"/>
  <outline>
    <contour>
      <point x="0" y="768" type="line"/>
      <point x="0" y="896" type="line"/>
      <point x="128" y="896" type="line"/>
      <point x="128" y="768" type="line"/>
    </contour>
    <contour>
      <point x="384" y="768" type="line"/>
      <point x="384" y="896" type="line"/>
      <point x="512" y="896" type="line"/>
      <point x="512" y="768" type="line"/>
    </contour>
    <contour>
      <point x="128" y="896" type="line"/>
      <point x="128" y="1024" type="line"/>
      <point x="384" y="1024" type="line"/>
      <point x="384" y="896" type="line"/>
    </contour>
    <component base="O"/>
  </outline>
</glyph>
<glyph name="ae" format="2">
  <advance width="768"/>
  <unicode hex="00E6"/>
  <anchor x="256" y="0" name="bottom"/>
  <anchor x="256" y="512" name="top"/>
  <outline>
    <contour>
      <point x="640" y="128" type="line"/>
      <point x="640" y="0" type="line"/>
      <point x="128" y="0" type="line"/>
      <point x="128" y="128" type="line"/>
      <point x="256" y="128" type="line"/>
      <point x="256" y="384" type="line"/>
      <point x="128" y="384" type="line"/>
      <point x="128" y="512" type="line"/>
      <point x="512" y="512" type="line"/>
      <point x="512" y="384" type="line"/>
      <point x="640" y="384" type="line"/>
      <point x="640" y="256" type="line"/>
      <point x="384" y="256" type="line"/>
      <point x="384" y="128" type="line"/>
    </contour>
    <contour>
      <point x="128" y="128" type="line"/>
      <point x="0" y="128" type="line"/>
      <point x="0" y="384" type="line"/>
      <point x="128" y="384" type="line"/>
    </contour>
  </outline>
</glyph>
<glyph name="Amacron" format="2">
  <advance width="640"/>
  <unicode hex="0100"/>
  <anchor x="256" y="896" name="top"/>
  <anchor x="256" y="0" name="bottom"/>
  <outline>
    <contour>
      <point x="0" y="768" type="line"/>
      <point x="0" y="896" type="line"/>
      <point x="512" y="896" type="line"/>
      <point x="512" y="768" type="line"/>
    </contour>
    <component base="A"/>
  </outline>
</glyph>
<glyph name="Dcroat" format="2">
  <advance width="640"/>
  <unicode hex="0110"/>
  <anchor x="256" y="640" name="top"/>
  <anchor x="256" y="0" name="bottom"/>
  <outline>
    <contour>
      <point x="512" y="128" type="line"/>
      <point x="384" y="128" type="line"/>
      <point x="384" y="512" type="line"/>
      <point x="512" y="512" type="line"/>
    </contour>
    <contour>
      <point x="128" y="128" type="line"/>
      <point x="384" y="128" type="line"/>
      <point x="384" y="0" type="line"/>
      <point x="0" y="0" type="line"/>
      <point x="0" y="640" type="line"/>
      <point x="384" y="640" type="line"/>
      <point x="384" y="512" type="line"/>
      <point x="128" y="512" type="line"/>
      <point x="128" y="384" type="line"/>
      <point x="256" y="384" type="line"/>
      <point x="256" y="256" type="line"/>
      <point x="128" y="256" type="line"/>
    </contour>
  </outline>
</glyph>
<glyph name="Emacron" format="2">
  <advance width="640"/>
  <unicode hex="0112"/>
  <anchor x="256" y="0" name="bottom"/>
  <anchor x="256" y="896" name="top"/>
  <outline>
    <contour>
      <point x="0" y="768" type="line"/>
      <point x="0" y="896" type="line"/>
      <point x="512" y="896" type="line"/>
      <point x="512" y="768" type="line"/>
    </contour>
    <component base="E"/>
  </outline>
</glyph>
<glyph name="dotlessi" format="2">
  <advance width="256"/>
  <unicode hex="0131"/>
  <anchor x="0" y="0" name="foot"/>
  <anchor x="0" y="0" name="bottom"/>
  <anchor x="0" y="512" name="top"/>
  <outline>
    <contour>
      <point x="128" y="0" type="line"/>
      <point x="0" y="0" type="line"/>
      <point x="0" y="512" type="line"/>
      <point x="128" y="512" type="line"/>
    </contour>
  </outline>
</glyph>
<glyph name="tbar" format="2">
  <advance width="384"/>
  <unicode hex="0167"/>
  <outline>
    <contour>
      <point x="128" y="128" type="line"/>
      <point x="0" y="128" type="line"/>
      <point x="0" y="768" type="line"/>
      <point x="128" y="768" type="line"/>
      <point x="128" y="640" type="line"/>
      <point x="256" y="640" type="line"/>
      <point x="256" y="512" type="line"/>
      <point x="128" y="512" type="line"/>
      <point x="128" y="384" type="line"/>
      <point x="256" y="384" type="line"/>
      <point x="256" y="256" type="line"/>
      <point x="128" y="256" type="line"/>
    </contour>
    <contour>
      <point x="128" y="0" type="line"/>
      <point x="128" y="128" type="line"/>
      <point x="256" y="128" type="line"/>
      <point x="256" y="0" type="line"/>
    </contour>
  </outline>
</glyph>
<glyph name="Umacron" format="2">
  <advance width="640"/>
  <unicode hex="016A"/>
  <anchor x="256" y="0" name="bottom"/>
  <anchor x="256" y="896" name="top"/>
  <outline>
    <contour>
      <point x="0" y="768" type="line"/>
      <point x="0" y="896" type="line"/>
      <point x="512" y="896" type="line"/>
      <point x="512" y="768" type="line"/>
    </contour>
    <component base="U"/>
  </outline>
</glyph>
<glyph name="uni0186" format="2">
  <advance width="512"/>
  <unicode hex="0186"/>
  <outline>
    <contour>
      <point x="256" y="128" type="line"/>
      <point x="256" y="0" type="line"/>
      <point x="0" y="0" type="line"/>
      <point x="0" y="128" type="line"/>
    </contour>
    <contour>
      <point x="384" y="128" type="line"/>
      <point x="256" y="128" type="line"/>
      <point x="256" y="512" type="line"/>
      <point x="384" y="512" type="line"/>
    </contour>
    <contour>
      <point x="0" y="512" type="line"/>
      <point x="0" y="640" type="line"/>
      <point x="256" y="640" type="line"/>
      <point x="256" y="512" type="line"/>
    </contour>
  </outline>
</glyph>
<glyph name="uni0187" format="2">
  <advance width="768"/>
  <unicode hex="0187"/>
  <outline>
    <contour>
      <point x="128" y="128" type="line"/>
      <point x="0" y="128" type="line"/>
      <point x="0" y="512" type="line"/>
      <point x="128" y="512" type="line"/>
    </contour>
    <contour>
      <point x="384" y="128" type="line"/>
      <point x="384" y="0" type="line"/>
      <point x="128" y="0" type="line"/>
      <point x="128" y="128" type="line"/>
    </contour>
    <contour>
      <point x="512" y="128" type="line"/>
      <point x="384" y="128" type="line"/>
      <point x="384" y="256" type="line"/>
      <point x="512" y="256" type="line"/>
    </contour>
    <contour>
      <point x="384" y="384" type="line"/>
      <point x="384" y="512" type="line"/>
      <point x="512" y="512" type="line"/>
      <point x="512" y="384" type="line"/>
    </contour>
    <contour>
      <point x="128" y="512" type="line"/>
      <point x="128" y="640" type="line"/>
      <point x="384" y="640" type="line"/>
      <point x="384" y="512" type="line"/>
    </contour>
    <contour>
      <point x="512" y="512" type="line"/>
      <point x="512" y="640" type="line"/>
      <point x="640" y="640" type="line"/>
      <point x="640" y="512" type="line"/>
    </contour>
  </outline>
</glyph>
<glyph name="uni018F" format="2">
  <advance width="640"/>
  <unicode hex="018F"/>
  <anchor x="256" y="0" name="bottom"/>
  <anchor x="256" y="640" name="top"/>
  <outline>
    <contour>
      <point x="128" y="128" type="line"/>
      <point x="0" y="128" type="line"/>
      <point x="0" y="384" type="line"/>
      <point x="384" y="384" type="line"/>
      <point x="384" y="512" type="line"/>
      <point x="512" y="512" type="line"/>
      <point x="512" y="128" type="line"/>
      <point x="384" y="128" type="line"/>
      <point x="384" y="256" type="line"/>
      <point x="128" y="256" type="line"/>
    </contour>
    <contour>
      <point x="384" y="128" type="line"/>
      <point x="384" y="0" type="line"/>
      <point x="128" y="0" type="line"/>
      <point x="128" y="128" type="line"/>
    </contour>
    <contour>
      <point x="128" y="512" type="line"/>
      <point x="128" y="640" type="line"/>
      <point x="384" y="640" type="line"/>
      <point x="384" y="512" type="line"/>
    </contour>
  </outline>
</glyph>
<glyph name="uni0196" format="2">
  <advance width="256"/>
  <unicode hex="0196"/>
  <outline>
    <contour>
      <point x="128" y="0" type="line"/>
      <point x="0" y="0" type="line"/>
      <point x="0" y="640" type="line"/>
      <point x="128" y="640" type="line"/>
    </contour>
  </outline>
</glyph>
<glyph name="uni0199" format="2">
  <advance width="512"/>
  <unicode hex="0199"/>
  <outline>
    <contour>
      <point x="128" y="0" type="line"/>
      <point x="0" y="0" type="line"/>
      <point x="0" y="640" type="line"/>
      <point x="128" y="640" type="line"/>
      <point x="128" y="384" type="line"/>
      <point x="256" y="384" type="line"/>
      <point x="256" y="256" type="line"/>
      <point x="128" y="256" type="line"/>
    </contour>
    <contour>
      <point x="384" y="0" type="line"/>
      <point x="256" y="0" type="line"/>
      <point x="256" y="256" type="line"/>
      <point x="384" y="256" type="line"/>
    </contour>
    <contour>
      <point x="256" y="384" type="line"/>
      <point x="256" y="512" type="line"/>
      <point x="384" y="512" type="line"/>
      <point x="384" y="384" type="line"/>
    </contour>
    <contour>
      <point x="128" y="640" type="line"/>
      <point x="128" y="768" type="line"/>
      <point x="256" y="768" type="line"/>
      <point x="256" y="640" type="line"/>
    </contour>
  </outline>
</glyph>
<glyph name="uni019D" format="2">
  <advance width="768"/>
  <unicode hex="019D"/>
  <outline>
    <contour>
      <point x="0" y="0" type="line"/>
      <point x="128" y="0" type="line"/>
      <point x="128" y="-128" type="line"/>
      <point x="0" y="-128" type="line"/>
    </contour>
    <contour>
      <point x="128" y="0" type="line"/>
      <point x="128" y="640" type="line"/>
      <point x="256" y="640" type="line"/>
      <point x="256" y="512" type="line"/>
      <point x="384" y="512" type="line"/>
      <point x="384" y="384" type="line"/>
      <point x="256" y="384" type="line"/>
      <point x="256" y="0" type="line"/>
    </contour>
    <contour>
      <point x="640" y="0" type="line"/>
      <point x="512" y="0" type="line"/>
      <point x="512" y="256" type="line"/>
      <point x="384" y="256" type="line"/>
      <point x="384" y="384" type="line"/>
      <point x="512" y="384" type="line"/>
      <point x="512" y="640" type="line"/>
      <point x="640" y="640" type="line"/>
    </contour>
  </outline>
</glyph>
<glyph name="uni01B2" format="2">
  <advance width="640"/>
  <unicode hex="01B2"/>
  <outline>
    <contour>
      <point x="128" y="128" type="line"/>
      <point x="0" y="128" type="line"/>
      <point x="0" y="640" type="line"/>
      <point x="128" y="640" type="line"/>
    </contour>
    <contour>
      <point x="384" y="128" type="line"/>
      <point x="384" y="0" type="line"/>
      <point x="128" y="0" type="line"/>
      <point x="128" y="128" type="line"/>
    </contour>
    <contour>
      <point x="512" y="128" type="line"/>
      <point x="384" y="128" type="line"/>
      <point x="384" y="512" type="line"/>
      <point x="512" y="512" type="line"/>
    </contour>
    <contour>
      <point x="256" y="512" type="line"/>
      <point x="256" y="640" type="line"/>
      <point x="384" y="640" type="line"/>
      <point x="384" y="512" type="line"/>
    </contour>
  </outline>
</glyph>
<glyph name="uni01D1" format="2">
  <advance width="640"/>
  <unicode hex="01D1"/>
  <outline>
    <contour>
      <point x="0" y="1024" type="line"/>
      <point x="0" y="896" type="line"/>
      <point x="128" y="896" type="line"/>
      <point x="128" y="1024" type="line"/>
    </contour>
    <contour>
      <point x="384" y="1024" type="line"/>
      <point x="384" y="896" type="line"/>
      <point x="512" y="896" type="line"/>
      <point x="512" y="1024" type="line"/>
    </contour>
    <contour>
      <point x="128" y="896" type="line"/>
      <point x="128" y="768" type="line"/>
      <point x="384" y="768" type="line"/>
      <point x="384" y="896" type="line"/>
    </contour>
    <component base="O"/>
  </outline>
</glyph>
<glyph name="uni01EC" format="2">
  <advance width="640"/>
  <unicode hex="01EC"/>
  <outline>
    <contour>
      <point x="0" y="768" type="line"/>
      <point x="0" y="896" type="line"/>
      <point x="512" y="896" type="line"/>
      <point x="512" y="768" type="line"/>
    </contour>
    <component base="uni01EA"/>
  </outline>
</glyph>
<glyph name="uni0220" format="2">
  <advance width="512"/>
  <unicode hex="0220"/>
  <outline>
    <contour>
      <point x="384" y="-128" type="line"/>
      <point x="256" y="-128" type="line"/>
      <point x="256" y="512" type="line"/>
      <point x="384" y="512" type="line"/>
    </contour>
    <contour>
      <point x="128" y="0" type="line"/>
      <point x="0" y="0" type="line"/>
      <point x="0" y="640" type="line"/>
      <point x="256" y="640" type="line"/>
      <point x="256" y="512" type="line"/>
      <point x="128" y="512" type="line"/>
    </contour>
  </outline>
</glyph>
<glyph name="uni022A" format="2">
  <advance width="640"/>
  <unicode hex="022A"/>
  <outline>
    <contour>
      <point x="0" y="1024" type="line"/>
      <point x="0" y="1152" type="line"/>
      <point x="512" y="1152" type="line"/>
      <point x="512" y="1024" type="line"/>
    </contour>
    <component base="Odieresis"/>
  </outline>
</glyph>
<glyph name="uni022C" format="2">
  <advance width="640"/>
  <unicode hex="022C"/>
  <outline>
    <contour>
      <point x="0" y="1024" type="line"/>
      <point x="0" y="1152" type="line"/>
      <point x="512" y="1152" type="line"/>
      <point x="512" y="1024" type="line"/>
    </contour>
    <component base="Otilde"/>
  </outline>
</glyph>
<glyph name="uni0230" format="2">
  <advance width="640"/>
  <unicode hex="0230"/>
  <outline>
    <contour>
      <point x="0" y="1024" type="line"/>
      <point x="0" y="1152" type="line"/>
      <point x="512" y="1152" type="line"/>
      <point x="512" y="1024" type="line"/>
    </contour>
    <component base="uni022E"/>
  </outline>
</glyph>
<glyph name="uni0237" format="2">
  <advance width="256"/>
  <unicode hex="0237"/>
  <outline>
    <contour>
      <point x="128" y="-128" type="line"/>
      <point x="0" y="-128" type="line"/>
      <point x="0" y="512" type="line"/>
      <point x="128" y="512" type="line"/>
    </contour>
  </outline>
</glyph>
<glyph name="uni0242" format="2">
  <advance width="640"/>
  <unicode hex="0242"/>
  <outline>
    <contour>
      <point x="256" y="128" type="line"/>
      <point x="256" y="256" type="line"/>
      <point x="384" y="256" type="line"/>
      <point x="384" y="128" type="line"/>
      <point x="512" y="128" type="line"/>
      <point x="512" y="0" type="line"/>
      <point x="128" y="0" type="line"/>
      <point x="128" y="128" type="line"/>
    </contour>
    <contour>
      <point x="0" y="384" type="line"/>
      <point x="0" y="512" type="line"/>
      <point x="128" y="512" type="line"/>
      <point x="128" y="384" type="line"/>
    </contour>
    <contour>
      <point x="384" y="256" type="line"/>
      <point x="384" y="512" type="line"/>
      <point x="512" y="512" type="line"/>
      <point x="512" y="256" type="line"/>
    </contour>
    <contour>
      <point x="128" y="512" type="line"/>
      <point x="128" y="640" type="line"/>
      <point x="384" y="640" type="line"/>
      <point x="384" y="512" type="line"/>
    </contour>
  </outline>
</glyph>
<glyph name="uni0244" format="2">
  <advance width="896"/>
  <unicode hex="0244"/>
  <outline>
    <contour>
      <point x="128" y="128" type="line"/>
      <point x="128" y="256" type="line"/>
      <point x="0" y="256" type="line"/>
      <point x="0" y="384" type="line"/>
      <point x="128" y="384" type="line"/>
      <point x="128" y="640" type="line"/>
      <point x="256" y="640" type="line"/>
      <point x="256" y="384" type="line"/>
      <point x="512" y="384" type="line"/>
      <point x="512" y="640" type="line"/>
      <point x="640" y="640" type="line"/>
      <point x="640" y="384" type="line"/>
      <point x="768" y="384" type="line"/>
      <point x="768" y="256" type="line"/>
      <point x="640" y="256" type="line"/>
      <point x="640" y="128" type="line"/>
      <point x="512" y="128" type="line"/>
      <point x="512" y="256" type="line"/>
      <point x="256" y="256" type="line"/>
      <point x="256" y="128" type="line"/>
    </contour>
    <contour>
      <point x="256" y="128" type="line"/>
      <point x="512" y="128" type="line"/>
      <point x="512" y="0" type="line"/>
      <point x="256" y="0" type="line"/>
    </contour>
  </outline>
</glyph>
<glyph name="uni026A" format="2">
  <advance width="256"/>
  <unicode hex="026A"/>
  <outline>
    <contour>
      <point x="128" y="0" type="line"/>
      <point x="0" y="0" type="line"/>
      <point x="0" y="512" type="line"/>
      <point x="128" y="512" type="line"/>
    </contour>
  </outline>
</glyph>
<glyph name="uni02B7" format="2">
  <advance width="768"/>
  <unicode hex="02B7"/>
  <anchor x="256" y="512" name="_bottom"/>
  <outline>
    <contour>
      <point x="640" y="128" type="line"/>
      <point x="512" y="128" type="line"/>
      <point x="512" y="384" type="line"/>
      <point x="640" y="384" type="line"/>
    </contour>
    <contour>
      <point x="384" y="128" type="line"/>
      <point x="512" y="128" type="line"/>
      <point x="512" y="0" type="line"/>
      <point x="128" y="0" type="line"/>
      <point x="128" y="128" type="line"/>
      <point x="256" y="128" type="line"/>
      <point x="256" y="384" type="line"/>
      <point x="384" y="384" type="line"/>
    </contour>
    <contour>
      <point x="128" y="128" type="line"/>
      <point x="0" y="128" type="line"/>
      <point x="0" y="384" type="line"/>
      <point x="128" y="384" type="line"/>
    </contour>
  </outline>
</glyph>
<glyph name="uni02BB" format="2">
  <advance width="256"/>
  <unicode hex="02BB"/>
  <anchor x="0" y="768" name="_bottom"/>
  <anchor x="-128" y="640" name="_right-top"/>
  <outline>
    <contour>
      <point x="128" y="384" type="line"/>
      <point x="0" y="384" type="line"/>
      <point x="0" y="640" type="line"/>
      <point x="128" y="640" type="line"/>
    </contour>
  </outline>
</glyph>
<glyph name="uni02BF" format="2">
  <advance width="256"/>
  <unicode hex="02BF"/>
  <anchor x="0" y="768" name="_bottom"/>
  <outline>
    <contour>
      <point x="128" y="384" type="line"/>
      <point x="0" y="384" type="line"/>
      <point x="0" y="640" type="line"/>
      <point x="128" y="640" type="line"/>
    </contour>
  </outline>
</glyph>
<glyph name="caron" format="2">
  <advance width="512"/>
  <unicode hex="02C7"/>
  <anchor x="128" y="256" name="_top"/>
  <outline>
    <contour>
      <point x="128" y="384" type="line"/>
      <point x="128" y="512" type="line"/>
      <point x="256" y="512" type="line"/>
      <point x="256" y="384" type="line"/>
    </contour>
    <contour>
      <point x="0" y="512" type="line"/>
      <point x="0" y="640" type="line"/>
      <point x="128" y="640" type="line"/>
      <point x="128" y="512" type="line"/>
    </contour>
    <contour>
      <point x="256" y="512" type="line"/>
      <point x="256" y="640" type="line"/>
      <point x="384" y="640" type="line"/>
      <point x="384" y="512" type="line"/>
    </contour>
  </outline>
</glyph>
<glyph name="macron" format="2">
  <advance width="512"/>
  <unicode hex="02C9"/>
  <unicode hex="00AF"/>
  <anchor x="128" y="384" name="_top"/>
  <outline>
    <contour>
      <point x="0" y="512" type="line"/>
      <point x="0" y="640" type="line"/>
      <point x="384" y="640" type="line"/>
      <point x="384" y="512" type="line"/>
    </contour>
  </outline>
</glyph>
<glyph name="macron" format="2">
  <advance width="512"/>
  <unicode hex="02C9"/>
  <outline>
    <contour>
      <point x="0" y="512" type="line"/>
      <point x="0" y="640" type="line"/>
      <point x="384" y="640" type="line"/>
      <point x="384" y="512" type="line"/>
    </contour>
  </outline>
</glyph>
<glyph name="uni02CB" format="2">
  <advance width="384"/>
  <unicode hex="02CB"/>
  <outline>
    <contour>
      <point x="128" y="384" type="line"/>
      <point x="128" y="512" type="line"/>
      <point x="256" y="512" type="line"/>
      <point x="256" y="384" type="line"/>
    </contour>
    <contour>
      <point x="0" y="512" type="line"/>
      <point x="0" y="640" type="line"/>
      <point x="128" y="640" type="line"/>
      <point x="128" y="512" type="line"/>
    </contour>
  </outline>
</glyph>
<glyph name="dotaccent" format="2">
  <advance width="256"/>
  <unicode hex="02D9"/>
  <anchor x="0" y="384" name="_top"/>
  <outline>
    <contour>
      <point x="0" y="512" type="line"/>
      <point x="0" y="640" type="line"/>
      <point x="128" y="640" type="line"/>
      <point x="128" y="512" type="line"/>
    </contour>
  </outline>
</glyph>
<glyph name="ring" format="2">
  <advance width="384"/>
  <unicode hex="02DA"/>
  <outline>
    <contour>
      <point x="0" y="384" type="line"/>
      <point x="0" y="640" type="line"/>
      <point x="256" y="640" type="line"/>
      <point x="256" y="384" type="line"/>
    </contour>
  </outline>
</glyph>
<glyph name="tilde" format="2">
  <advance width="384"/>
  <unicode hex="02DC"/>
  <anchor x="0" y="384" name="_top"/>
  <outline>
    <contour>
      <point x="0" y="512" type="line"/>
      <point x="0" y="640" type="line"/>
      <point x="256" y="640" type="line"/>
      <point x="256" y="512" type="line"/>
    </contour>
  </outline>
</glyph>
<glyph name="uni02EE" format="2">
  <advance width="512"/>
  <unicode hex="02EE"/>
  <anchor x="128" y="256" name="top"/>
  <outline>
    <contour>
      <point x="128" y="384" type="line"/>
      <point x="0" y="384" type="line"/>
      <point x="0" y="640" type="line"/>
      <point x="128" y="640" type="line"/>
    </contour>
    <contour>
      <point x="384" y="384" type="line"/>
      <point x="256" y="384" type="line"/>
      <point x="256" y="640" type="line"/>
      <point x="384" y="640" type="line"/>
    </contour>
  </outline>
</glyph>
<glyph name="tildecomb" format="2">
  <advance width="384"/>
  <unicode hex="0303"/>
  <outline>
    <contour>
      <point x="0" y="512" type="line"/>
      <point x="0" y="640" type="line"/>
      <point x="256" y="640" type="line"/>
      <point x="256" y="512" type="line"/>
    </contour>
  </outline>
</glyph>
<glyph name="uni0304" format="2">
  <advance width="512"/>
  <unicode hex="0304"/>
  <outline>
    <contour>
      <point x="0" y="512" type="line"/>
      <point x="0" y="640" type="line"/>
      <point x="384" y="640" type="line"/>
      <point x="384" y="512" type="line"/>
    </contour>
  </outline>
</glyph>
<glyph name="uni0307" format="2">
  <advance width="0"/>
  <unicode hex="0307"/>
  <anchor x="0" y="384" name="_top"/>
  <outline>
    <contour>
      <point x="0" y="512" type="line"/>
      <point x="0" y="640" type="line"/>
      <point x="128" y="640" type="line"/>
      <point x="128" y="512" type="line"/>
    </contour>
  </outline>
</glyph>
<glyph name="uni030A" format="2">
  <advance width="384"/>
  <unicode hex="030A"/>
  <outline>
    <contour>
      <point x="0" y="384" type="line"/>
      <point x="0" y="640" type="line"/>
      <point x="256" y="640" type="line"/>
      <point x="256" y="384" type="line"/>
    </contour>
  </outline>
</glyph>
<glyph name="uni030D" format="2">
  <advance width="0"/>
  <unicode hex="030D"/>
  <anchor x="0" y="256" name="_top"/>
  <outline>
    <contour>
      <point x="128" y="384" type="line"/>
      <point x="0" y="384" type="line"/>
      <point x="0" y="640" type="line"/>
      <point x="128" y="640" type="line"/>
    </contour>
  </outline>
</glyph>
<glyph name="uni0311" format="2">
  <advance width="512"/>
  <unicode hex="0311"/>
  <outline>
    <contour>
      <point x="0" y="384" type="line"/>
      <point x="0" y="512" type="line"/>
      <point x="128" y="512" type="line"/>
      <point x="128" y="384" type="line"/>
    </contour>
    <contour>
      <point x="256" y="384" type="line"/>
      <point x="256" y="512" type="line"/>
      <point x="384" y="512" type="line"/>
      <point x="384" y="384" type="line"/>
    </contour>
    <contour>
      <point x="128" y="512" type="line"/>
      <point x="128" y="640" type="line"/>
      <point x="256" y="640" type="line"/>
      <point x="256" y="512" type="line"/>
    </contour>
  </outline>
</glyph>
<glyph name="uni0313" format="2">
  <advance width="256"/>
  <unicode hex="0313"/>
  <outline>
    <contour>
      <point x="128" y="384" type="line"/>
      <point x="0" y="384" type="line"/>
      <point x="0" y="640" type="line"/>
      <point x="128" y="640" type="line"/>
    </contour>
  </outline>
</glyph>
<glyph name="dotbelowcomb" format="2">
  <advance width="256"/>
  <unicode hex="0323"/>
  <anchor x="0" y="256" name="_bottom"/>
  <outline>
    <contour>
      <point x="0" y="0" type="line"/>
      <point x="0" y="128" type="line"/>
      <point x="128" y="128" type="line"/>
      <point x="128" y="0" type="line"/>
    </contour>
  </outline>
</glyph>
<glyph name="uni0326" format="2">
  <advance width="256"/>
  <unicode hex="0326"/>
  <anchor x="0" y="256" name="_bottom"/>
  <outline>
    <contour>
      <point x="0" y="0" type="line"/>
      <point x="0" y="128" type="line"/>
      <point x="128" y="128" type="line"/>
      <point x="128" y="0" type="line"/>
    </contour>
  </outline>
</glyph>
<glyph name="uni0327" format="2">
  <advance width="256"/>
  <unicode hex="0327"/>
  <outline>
    <contour>
      <point x="0" y="-128" type="line"/>
      <point x="0" y="0" type="line"/>
      <point x="128" y="0" type="line"/>
      <point x="128" y="-128" type="line"/>
    </contour>
  </outline>
</glyph>
<glyph name="uni0328" format="2">
  <advance width="256"/>
  <unicode hex="0328"/>
  <outline>
    <contour>
      <point x="0" y="-128" type="line"/>
      <point x="0" y="0" type="line"/>
      <point x="128" y="0" type="line"/>
      <point x="128" y="-128" type="line"/>
    </contour>
  </outline>
</glyph>
<glyph name="uni0329" format="2">
  <advance width="256"/>
  <unicode hex="0329"/>
  <anchor x="0" y="384" name="_bottom"/>
  <outline>
    <contour>
      <point x="0" y="256" type="line"/>
      <point x="128" y="256" type="line"/>
      <point x="128" y="0" type="line"/>
      <point x="0" y="0" type="line"/>
    </contour>
  </outline>
</glyph>
<glyph name="uni032D" format="2">
  <advance width="512"/>
  <unicode hex="032D"/>
  <anchor x="128" y="384" name="_bottom"/>
  <outline>
    <contour>
      <point x="128" y="128" type="line"/>
      <point x="128" y="256" type="line"/>
      <point x="256" y="256" type="line"/>
      <point x="256" y="128" type="line"/>
    </contour>
    <contour>
      <point x="256" y="128" type="line"/>
      <point x="384" y="128" type="line"/>
      <point x="384" y="0" type="line"/>
      <point x="256" y="0" type="line"/>
    </contour>
    <contour>
      <point x="0" y="0" type="line"/>
      <point x="0" y="128" type="line"/>
      <point x="128" y="128" type="line"/>
      <point x="128" y="0" type="line"/>
    </contour>
  </outline>
</glyph>
<glyph name="uni032F" format="2">
  <advance width="512"/>
  <unicode hex="032F"/>
  <anchor x="128" y="384" name="_bottom"/>
  <outline>
    <contour>
      <point x="128" y="128" type="line"/>
      <point x="128" y="256" type="line"/>
      <point x="256" y="256" type="line"/>
      <point x="256" y="128" type="line"/>
    </contour>
    <contour>
      <point x="256" y="128" type="line"/>
      <point x="384" y="128" type="line"/>
      <point x="384" y="0" type="line"/>
      <point x="256" y="0" type="line"/>
    </contour>
    <contour>
      <point x="0" y="0" type="line"/>
      <point x="0" y="128" type="line"/>
      <point x="128" y="128" type="line"/>
      <point x="128" y="0" type="line"/>
    </contour>
  </outline>
</glyph>
<glyph name="uni0330" format="2">
  <advance width="384"/>
  <unicode hex="0330"/>
  <anchor x="0" y="256" name="_bottom"/>
  <outline>
    <contour>
      <point x="0" y="0" type="line"/>
      <point x="0" y="128" type="line"/>
      <point x="256" y="128" type="line"/>
      <point x="256" y="0" type="line"/>
    </contour>
  </outline>
</glyph>
<glyph name="uni0331" format="2">
  <advance width="512"/>
  <unicode hex="0331"/>
  <anchor x="128" y="256" name="_bottom"/>
  <outline>
    <contour>
      <point x="0" y="0" type="line"/>
      <point x="0" y="128" type="line"/>
      <point x="384" y="128" type="line"/>
      <point x="384" y="0" type="line"/>
    </contour>
  </outline>
</glyph>
<glyph name="uni0332" format="2">
  <advance width="640"/>
  <unicode hex="0332"/>
  <outline>
    <contour>
      <point x="0" y="-128" type="line"/>
      <point x="0" y="0" type="line"/>
      <point x="512" y="0" type="line"/>
      <point x="512" y="-128" type="line"/>
    </contour>
  </outline>
</glyph>
<glyph name="uni0334" format="2">
  <advance width="384"/>
  <unicode hex="0334"/>
  <outline>
    <contour>
      <point x="0" y="256" type="line"/>
      <point x="0" y="384" type="line"/>
      <point x="256" y="384" type="line"/>
      <point x="256" y="256" type="line"/>
    </contour>
  </outline>
</glyph>
<glyph name="uni0358" format="2">
  <advance width="256"/>
  <unicode hex="0358"/>
  <anchor x="-128" y="640" name="_right-top"/>
  <outline>
    <contour>
      <point x="0" y="512" type="line"/>
      <point x="0" y="640" type="line"/>
      <point x="128" y="640" type="line"/>
      <point x="128" y="512" type="line"/>
    </contour>
  </outline>
</glyph>
<glyph name="uni1DC4" format="2">
  <advance width="0"/>
  <unicode hex="1DC4"/>
  <anchor x="128" y="384" name="_top"/>
  <outline>
    <contour>
      <point x="384" y="640" type="line"/>
      <point x="384" y="512" type="line"/>
      <point x="0" y="512" type="line"/>
      <point x="0" y="640" type="line"/>
    </contour>
    <contour>
      <point x="512" y="640" type="line"/>
      <point x="384" y="640" type="line"/>
      <point x="384" y="768" type="line"/>
      <point x="512" y="768" type="line"/>
    </contour>
  </outline>
</glyph>
<glyph name="uni1DC5" format="2">
  <advance width="640"/>
  <unicode hex="1DC5"/>
  <outline>
    <contour>
      <point x="0" y="640" type="line"/>
      <point x="0" y="768" type="line"/>
      <point x="128" y="768" type="line"/>
      <point x="128" y="640" type="line"/>
    </contour>
    <contour>
      <point x="128" y="640" type="line"/>
      <point x="512" y="640" type="line"/>
      <point x="512" y="512" type="line"/>
      <point x="128" y="512" type="line"/>
    </contour>
  </outline>
</glyph>
<glyph name="uni1DC6" format="2">
  <advance width="0"/>
  <unicode hex="1DC6"/>
  <anchor x="128" y="384" name="_top"/>
  <outline>
    <contour>
      <point x="384" y="384" type="line"/>
      <point x="384" y="512" type="line"/>
      <point x="512" y="512" type="line"/>
      <point x="512" y="384" type="line"/>
    </contour>
    <contour>
      <point x="0" y="512" type="line"/>
      <point x="0" y="640" type="line"/>
      <point x="384" y="640" type="line"/>
      <point x="384" y="512" type="line"/>
    </contour>
  </outline>
</glyph>
<glyph name="uni1DC7" format="2">
  <advance width="640"/>
  <unicode hex="1DC7"/>
  <outline>
    <contour>
      <point x="0" y="384" type="line"/>
      <point x="0" y="512" type="line"/>
      <point x="128" y="512" type="line"/>
      <point x="128" y="384" type="line"/>
    </contour>
    <contour>
      <point x="128" y="512" type="line"/>
      <point x="128" y="640" type="line"/>
      <point x="512" y="640" type="line"/>
      <point x="512" y="512" type="line"/>
    </contour>
  </outline>
</glyph>
<glyph name="uni1E0E" format="2">
  <advance width="640"/>
  <unicode hex="1E0E"/>
  <outline>
    <contour>
      <point x="0" y="-256" type="line"/>
      <point x="0" y="-128" type="line"/>
      <point x="512" y="-128" type="line"/>
      <point x="512" y="-256" type="line"/>
    </contour>
    <component base="D"/>
  </outline>
</glyph>
<glyph name="uni1E28" format="2">
  <advance width="640"/>
  <unicode hex="1E28"/>
  <outline>
    <contour>
      <point x="128" y="0" type="line"/>
      <point x="0" y="0" type="line"/>
      <point x="0" y="640" type="line"/>
      <point x="128" y="640" type="line"/>
      <point x="128" y="384" type="line"/>
      <point x="384" y="384" type="line"/>
      <point x="384" y="640" type="line"/>
      <point x="512" y="640" type="line"/>
      <point x="512" y="0" type="line"/>
      <point x="384" y="0" type="line"/>
      <point x="384" y="256" type="line"/>
      <point x="128" y="256" type="line"/>
    </contour>
    <contour>
      <point x="256" y="0" type="line"/>
      <point x="256" y="-128" type="line"/>
      <point x="128" y="-128" type="line"/>
      <point x="128" y="0" type="line"/>
    </contour>
    <contour>
      <point x="0" y="-256" type="line"/>
      <point x="0" y="-128" type="line"/>
      <point x="128" y="-128" type="line"/>
      <point x="128" y="-256" type="line"/>
    </contour>
  </outline>
</glyph>
<glyph name="uni1E3D" format="2">
  <advance width="256"/>
  <unicode hex="1E3D"/>
  <outline>
    <contour>
      <point x="128" y="0" type="line"/>
      <point x="0" y="0" type="line"/>
      <point x="0" y="640" type="line"/>
      <point x="128" y="640" type="line"/>
    </contour>
    <contour>
      <point x="0" y="-256" type="line"/>
      <point x="0" y="-128" type="line"/>
      <point x="128" y="-128" type="line"/>
      <point x="128" y="-256" type="line"/>
    </contour>
    <contour>
      <point x="128" y="-256" type="line"/>
      <point x="256" y="-256" type="line"/>
      <point x="256" y="-384" type="line"/>
      <point x="128" y="-384" type="line"/>
    </contour>
    <contour>
      <point x="0" y="-384" type="line"/>
      <point x="-128" y="-384" type="line"/>
      <point x="-128" y="-256" type="line"/>
      <point x="0" y="-256" type="line"/>
    </contour>
  </outline>
</glyph>
<glyph name="uni1E4A" format="2">
  <advance width="640"/>
  <unicode hex="1E4A"/>
  <outline>
    <contour>
      <point x="0" y="-384" type="line"/>
      <point x="0" y="-256" type="line"/>
      <point x="128" y="-256" type="line"/>
      <point x="128" y="-384" type="line"/>
    </contour>
    <contour>
      <point x="384" y="-384" type="line"/>
      <point x="384" y="-256" type="line"/>
      <point x="512" y="-256" type="line"/>
      <point x="512" y="-384" type="line"/>
    </contour>
    <contour>
      <point x="128" y="-256" type="line"/>
      <point x="128" y="-128" type="line"/>
      <point x="384" y="-128" type="line"/>
      <point x="384" y="-256" type="line"/>
    </contour>
    <component base="N"/>
  </outline>
</glyph>
<glyph name="uni1E4C" format="2">
  <advance width="640"/>
  <unicode hex="1E4C"/>
  <outline>
    <contour>
      <point x="128" y="128" type="line"/>
      <point x="0" y="128" type="line"/>
      <point x="0" y="512" type="line"/>
      <point x="128" y="512" type="line"/>
    </contour>
    <contour>
      <point x="384" y="128" type="line"/>
      <point x="384" y="0" type="line"/>
      <point x="128" y="0" type="line"/>
      <point x="128" y="128" type="line"/>
    </contour>
    <contour>
      <point x="512" y="128" type="line"/>
      <point x="384" y="128" type="line"/>
      <point x="384" y="512" type="line"/>
      <point x="512" y="512" type="line"/>
    </contour>
    <contour>
      <point x="128" y="512" type="line"/>
      <point x="128" y="640" type="line"/>
      <point x="384" y="640" type="line"/>
      <point x="384" y="512" type="line"/>
    </contour>
    <contour>
      <point x="128" y="768" type="line"/>
      <point x="128" y="896" type="line"/>
      <point x="384" y="896" type="line"/>
      <point x="384" y="768" type="line"/>
    </contour>
    <contour>
      <point x="256" y="1152" type="line"/>
      <point x="256" y="1024" type="line"/>
      <point x="128" y="1024" type="line"/>
      <point x="128" y="1152" type="line"/>
    </contour>
    <contour>
      <point x="384" y="1152" type="line"/>
      <point x="256" y="1152" type="line"/>
      <point x="256" y="1280" type="line"/>
      <point x="384" y="1280" type="line"/>
    </contour>
  </outline>
</glyph>
<glyph name="uni1E4E" format="2">
  <advance width="640"/>
  <unicode hex="1E4E"/>
  <outline>
    <contour>
      <point x="0" y="1024" type="line"/>
      <point x="0" y="1152" type="line"/>
      <point x="128" y="1152" type="line"/>
      <point x="128" y="1024" type="line"/>
    </contour>
    <contour>
      <point x="384" y="1024" type="line"/>
      <point x="384" y="1152" type="line"/>
      <point x="512" y="1152" type="line"/>
      <point x="512" y="1024" type="line"/>
    </contour>
    <component base="Otilde"/>
  </outline>
</glyph>
<glyph name="uni1E5C" format="2">
  <advance width="640"/>
  <unicode hex="1E5C"/>
  <outline>
    <contour>
      <point x="0" y="768" type="line"/>
      <point x="0" y="896" type="line"/>
      <point x="512" y="896" type="line"/>
      <point x="512" y="768" type="line"/>
    </contour>
    <component base="uni1E5A"/>
  </outline>
</glyph>
<glyph name="uni1E86" format="2">
  <advance width="768"/>
  <unicode hex="1E86"/>
  <outline>
    <contour>
      <point x="256" y="0" type="line"/>
      <point x="128" y="0" type="line"/>
      <point x="128" y="256" type="line"/>
      <point x="256" y="256" type="line"/>
    </contour>
    <contour>
      <point x="512" y="0" type="line"/>
      <point x="384" y="0" type="line"/>
      <point x="384" y="256" type="line"/>
      <point x="512" y="256" type="line"/>
    </contour>
    <contour>
      <point x="128" y="256" type="line"/>
      <point x="0" y="256" type="line"/>
      <point x="0" y="640" type="line"/>
      <point x="128" y="640" type="line"/>
    </contour>
    <contour>
      <point x="256" y="256" type="line"/>
      <point x="256" y="640" type="line"/>
      <point x="384" y="640" type="line"/>
      <point x="384" y="256" type="line"/>
    </contour>
    <contour>
      <point x="512" y="256" type="line"/>
      <point x="512" y="640" type="line"/>
      <point x="640" y="640" type="line"/>
      <point x="640" y="256" type="line"/>
    </contour>
    <contour>
      <point x="256" y="768" type="line"/>
      <point x="256" y="896" type="line"/>
      <point x="384" y="896" type="line"/>
      <point x="384" y="768" type="line"/>
    </contour>
  </outline>
</glyph>
<glyph name="uni1EC6" format="2">
  <advance width="640"/>
  <unicode hex="1EC6"/>
  <outline>
    <contour>
      <point x="0" y="768" type="line"/>
      <point x="0" y="896" type="line"/>
      <point x="128" y="896" type="line"/>
      <point x="128" y="768" type="line"/>
    </contour>
    <contour>
      <point x="384" y="768" type="line"/>
      <point x="384" y="896" type="line"/>
      <point x="512" y="896" type="line"/>
      <point x="512" y="768" type="line"/>
    </contour>
    <contour>
      <point x="128" y="896" type="line"/>
      <point x="128" y="1024" type="line"/>
      <point x="384" y="1024" type="line"/>
      <point x="384" y="896" type="line"/>
    </contour>
    <component base="uni1EB8"/>
  </outline>
</glyph>
<glyph name="afii00208" format="2">
  <advance width="640"/>
  <unicode hex="2015"/>
  <outline>
    <contour>
      <point x="0" y="256" type="line"/>
      <point x="0" y="384" type="line"/>
      <point x="512" y="384" type="line"/>
      <point x="512" y="256" type="line"/>
    </contour>
  </outline>
</glyph>
<glyph name="quotedblleft" format="2">
  <advance width="512"/>
  <unicode hex="201C"/>
  <outline>
    <contour>
      <point x="128" y="512" type="line"/>
      <point x="0" y="512" type="line"/>
      <point x="0" y="768" type="line"/>
      <point x="128" y="768" type="line"/>
    </contour>
    <contour>
      <point x="384" y="512" type="line"/>
      <point x="256" y="512" type="line"/>
      <point x="256" y="768" type="line"/>
      <point x="384" y="768" type="line"/>
    </contour>
  </outline>
</glyph>
<glyph name="quotedblbase" format="2">
  <advance width="512"/>
  <unicode hex="201E"/>
  <outline>
    <contour>
      <point x="384" y="-128" type="line"/>
      <point x="256" y="-128" type="line"/>
      <point x="256" y="128" type="line"/>
      <point x="384" y="128" type="line"/>
    </contour>
    <contour>
      <point x="0" y="128" type="line"/>
      <point x="128" y="128" type="line"/>
      <point x="128" y="-128" type="line"/>
      <point x="0" y="-128" type="line"/>
    </contour>
  </outline>
</glyph>
<glyph name="bullet" format="2">
  <advance width="384"/>
  <unicode hex="2022"/>
  <outline>
    <contour>
      <point x="0" y="256" type="line"/>
      <point x="0" y="512" type="line"/>
      <point x="256" y="512" type="line"/>
      <point x="256" y="256" type="line"/>
    </contour>
  </outline>
</glyph>
<glyph name="perthousand" format="2">
  <advance width="896"/>
  <unicode hex="2030"/>
  <outline>
    <contour>
      <point x="0" y="128" type="line"/>
      <point x="0" y="256" type="line"/>
      <point x="128" y="256" type="line"/>
      <point x="128" y="128" type="line"/>
    </contour>
    <contour>
      <point x="384" y="128" type="line"/>
      <point x="384" y="256" type="line"/>
      <point x="512" y="256" type="line"/>
      <point x="512" y="128" type="line"/>
    </contour>
    <contour>
      <point x="640" y="128" type="line"/>
      <point x="640" y="256" type="line"/>
      <point x="768" y="256" type="line"/>
      <point x="768" y="128" type="line"/>
    </contour>
    <contour>
      <point x="128" y="256" type="line"/>
      <point x="128" y="384" type="line"/>
      <point x="256" y="384" type="line"/>
      <point x="256" y="256" type="line"/>
    </contour>
    <contour>
      <point x="256" y="384" type="line"/>
      <point x="256" y="512" type="line"/>
      <point x="384" y="512" type="line"/>
      <point x="384" y="384" type="line"/>
    </contour>
    <contour>
      <point x="128" y="640" type="line"/>
      <point x="128" y="512" type="line"/>
      <point x="0" y="512" type="line"/>
      <point x="0" y="640" type="line"/>
    </contour>
    <contour>
      <point x="384" y="512" type="line"/>
      <point x="384" y="640" type="line"/>
      <point x="512" y="640" type="line"/>
      <point x="512" y="512" type="line"/>
    </contour>
  </outline>
</glyph>
<glyph name="minute" format="2">
  <advance width="256"/>
  <unicode hex="2032"/>
  <outline>
    <contour>
      <point x="128" y="512" type="line"/>
      <point x="0" y="512" type="line"/>
      <point x="0" y="768" type="line"/>
      <point x="128" y="768" type="line"/>
    </contour>
  </outline>
</glyph>
<glyph name="second" format="2">
  <advance width="512"/>
  <unicode hex="2033"/>
  <outline>
    <contour>
      <point x="128" y="512" type="line"/>
      <point x="0" y="512" type="line"/>
      <point x="0" y="768" type="line"/>
      <point x="128" y="768" type="line"/>
    </contour>
    <contour>
      <point x="384" y="512" type="line"/>
      <point x="256" y="512" type="line"/>
      <point x="256" y="768" type="line"/>
      <point x="384" y="768" type="line"/>
    </contour>
  </outline>
</glyph>
<glyph name="uni20A8" format="2">
  <advance width="1152"/>
  <unicode hex="20A8"/>
  <outline>
    <contour>
      <point x="128" y="0" type="line"/>
      <point x="0" y="0" type="line"/>
      <point x="0" y="640" type="line"/>
      <point x="384" y="640" type="line"/>
      <point x="384" y="512" type="line"/>
      <point x="128" y="512" type="line"/>
      <point x="128" y="384" type="line"/>
      <point x="384" y="384" type="line"/>
      <point x="384" y="256" type="line"/>
      <point x="128" y="256" type="line"/>
    </contour>
    <contour>
      <point x="896" y="128" type="line"/>
      <point x="896" y="0" type="line"/>
      <point x="640" y="0" type="line"/>
      <point x="640" y="128" type="line"/>
    </contour>
    <contour>
      <point x="1024" y="128" type="line"/>
      <point x="896" y="128" type="line"/>
      <point x="896" y="256" type="line"/>
      <point x="1024" y="256" type="line"/>
    </contour>
    <contour>
      <point x="512" y="0" type="line"/>
      <point x="384" y="0" type="line"/>
      <point x="384" y="256" type="line"/>
      <point x="512" y="256" type="line"/>
    </contour>
    <contour>
      <point x="768" y="384" type="line"/>
      <point x="768" y="512" type="line"/>
      <point x="1024" y="512" type="line"/>
      <point x="1024" y="384" type="line"/>
      <point x="896" y="384" type="line"/>
      <point x="896" y="256" type="line"/>
      <point x="640" y="256" type="line"/>
      <point x="640" y="384" type="line"/>
    </contour>
    <contour>
      <point x="512" y="384" type="line"/>
      <point x="384" y="384" type="line"/>
      <point x="384" y="512" type="line"/>
      <point x="512" y="512" type="line"/>
    </contour>
  </outline>
</glyph>
<glyph name="afii61289" format="2">
  <advance width="256"/>
  <unicode hex="2113"/>
  <outline>
    <contour>
      <point x="128" y="0" type="line"/>
      <point x="0" y="0" type="line"/>
      <point x="0" y="640" type="line"/>
      <point x="128" y="640" type="line"/>
    </contour>
  </outline>
</glyph>
<glyph name="arrowright" format="2">
  <advance width="768"/>
  <unicode hex="2192"/>
  <outline>
    <contour>
      <point x="384" y="128" type="line"/>
      <point x="384" y="0" type="line"/>
      <point x="256" y="0" type="line"/>
      <point x="256" y="256" type="line"/>
      <point x="0" y="256" type="line"/>
      <point x="0" y="384" type="line"/>
      <point x="256" y="384" type="line"/>
      <point x="256" y="640" type="line"/>
      <point x="384" y="640" type="line"/>
      <point x="384" y="512" type="line"/>
      <point x="512" y="512" type="line"/>
      <point x="512" y="384" type="line"/>
      <point x="640" y="384" type="line"/>
      <point x="640" y="256" type="line"/>
      <point x="512" y="256" type="line"/>
      <point x="512" y="128" type="line"/>
    </contour>
  </outline>
</glyph>
<glyph name="arrowboth" format="2">
  <advance width="1024"/>
  <unicode hex="2194"/>
  <outline>
    <contour>
      <point x="640" y="128" type="line"/>
      <point x="640" y="0" type="line"/>
      <point x="512" y="0" type="line"/>
      <point x="512" y="256" type="line"/>
      <point x="384" y="256" type="line"/>
      <point x="384" y="0" type="line"/>
      <point x="256" y="0" type="line"/>
      <point x="256" y="128" type="line"/>
      <point x="128" y="128" type="line"/>
      <point x="128" y="256" type="line"/>
      <point x="0" y="256" type="line"/>
      <point x="0" y="384" type="line"/>
      <point x="128" y="384" type="line"/>
      <point x="128" y="512" type="line"/>
      <point x="256" y="512" type="line"/>
      <point x="256" y="640" type="line"/>
      <point x="384" y="640" type="line"/>
      <point x="384" y="384" type="line"/>
      <point x="512" y="384" type="line"/>
      <point x="512" y="640" type="line"/>
      <point x="640" y="640" type="line"/>
      <point x="640" y="512" type="line"/>
      <point x="768" y="512" type="line"/>
      <point x="768" y="384" type="line"/>
      <point x="896" y="384" type="line"/>
      <point x="896" y="256" type="line"/>
      <point x="768" y="256" type="line"/>
      <point x="768" y="128" type="line"/>
    </contour>
  </outline>
</glyph>
<glyph name="Delta" format="2">
  <advance width="768"/>
  <unicode hex="2206"/>
  <outline>
    <contour>
      <point x="512" y="128" type="line"/>
      <point x="640" y="128" type="line"/>
      <point x="640" y="0" type="line"/>
      <point x="0" y="0" type="line"/>
      <point x="0" y="128" type="line"/>
      <point x="128" y="128" type="line"/>
      <point x="128" y="384" type="line"/>
      <point x="256" y="384" type="line"/>
      <point x="256" y="128" type="line"/>
      <point x="384" y="128" type="line"/>
      <point x="384" y="384" type="line"/>
      <point x="512" y="384" type="line"/>
    </contour>
    <contour>
      <point x="256" y="384" type="line"/>
      <point x="256" y="640" type="line"/>
      <point x="384" y="640" type="line"/>
      <point x="384" y="384" type="line"/>
    </contour>
  </outline>
</glyph>
<glyph name="minus" format="2">
  <advance width="384"/>
  <unicode hex="2212"/>
  <outline>
    <contour>
      <point x="0" y="256" type="line"/>
      <point x="0" y="384" type="line"/>
      <point x="256" y="384" type="line"/>
      <point x="256" y="256" type="line"/>
    </contour>
  </outline>
</glyph>
<glyph name="filledbox" format="2">
  <advance width="512"/>
  <unicode hex="25A0"/>
  <outline>
    <contour>
      <point x="0" y="128" type="line"/>
      <point x="0" y="512" type="line"/>
      <point x="384" y="512" type="line"/>
      <point x="384" y="128" type="line"/>
    </contour>
  </outline>
</glyph>
<glyph name="H18543" format="2">
  <advance width="384"/>
  <unicode hex="25AA"/>
  <outline>
    <contour>
      <point x="0" y="256" type="line"/>
      <point x="0" y="512" type="line"/>
      <point x="256" y="512" type="line"/>
      <point x="256" y="256" type="line"/>
    </contour>
  </outline>
</glyph>
<glyph name="uni25B5" format="2">
  <advance width="512"/>
  <unicode hex="25B5"/>
  <outline>
    <contour>
      <point x="128" y="384" type="line"/>
      <point x="128" y="256" type="line"/>
      <point x="0" y="256" type="line"/>
      <point x="0" y="384" type="line"/>
    </contour>
    <contour>
      <point x="256" y="384" type="line"/>
      <point x="128" y="384" type="line"/>
      <point x="128" y="512" type="line"/>
      <point x="256" y="512" type="line"/>
    </contour>
    <contour>
      <point x="256" y="256" type="line"/>
      <point x="256" y="384" type="line"/>
      <point x="384" y="384" type="line"/>
      <point x="384" y="256" type="line"/>
    </contour>
  </outline>
</glyph>
<glyph name="triagrt" format="2">
  <advance width="768"/>
  <unicode hex="25BA"/>
  <outline>
    <contour>
      <point x="128" y="128" type="line"/>
      <point x="128" y="0" type="line"/>
      <point x="0" y="0" type="line"/>
      <point x="0" y="640" type="line"/>
      <point x="128" y="640" type="line"/>
      <point x="128" y="512" type="line"/>
      <point x="384" y="512" type="line"/>
      <point x="384" y="384" type="line"/>
      <point x="640" y="384" type="line"/>
      <point x="640" y="256" type="line"/>
      <point x="384" y="256" type="line"/>
      <point x="384" y="128" type="line"/>
    </contour>
  </outline>
</glyph>
<glyph name="uni25BB" format="2">
  <advance width="768"/>
  <unicode hex="25BB"/>
  <outline>
    <contour>
      <point x="128" y="128" type="line"/>
      <point x="128" y="0" type="line"/>
      <point x="0" y="0" type="line"/>
      <point x="0" y="640" type="line"/>
      <point x="128" y="640" type="line"/>
      <point x="128" y="512" type="line"/>
      <point x="384" y="512" type="line"/>
      <point x="384" y="384" type="line"/>
      <point x="128" y="384" type="line"/>
      <point x="128" y="256" type="line"/>
      <point x="384" y="256" type="line"/>
      <point x="384" y="128" type="line"/>
    </contour>
    <contour>
      <point x="384" y="384" type="line"/>
      <point x="640" y="384" type="line"/>
      <point x="640" y="256" type="line"/>
      <point x="384" y="256" type="line"/>
    </contour>
  </outline>
</glyph>
<glyph name="triagdn" format="2">
  <advance width="768"/>
  <unicode hex="25BC"/>
  <outline>
    <contour>
      <point x="256" y="128" type="line"/>
      <point x="256" y="256" type="line"/>
      <point x="128" y="256" type="line"/>
      <point x="128" y="384" type="line"/>
      <point x="0" y="384" type="line"/>
      <point x="0" y="512" type="line"/>
      <point x="640" y="512" type="line"/>
      <point x="640" y="384" type="line"/>
      <point x="512" y="384" type="line"/>
      <point x="512" y="256" type="line"/>
      <point x="384" y="256" type="line"/>
      <point x="384" y="128" type="line"/>
    </contour>
  </outline>
</glyph>
<glyph name="uni25BE" format="2">
  <advance width="512"/>
  <unicode hex="25BE"/>
  <outline>
    <contour>
      <point x="0" y="384" type="line"/>
      <point x="0" y="512" type="line"/>
      <point x="384" y="512" type="line"/>
      <point x="384" y="384" type="line"/>
      <point x="256" y="384" type="line"/>
      <point x="256" y="256" type="line"/>
      <point x="128" y="256" type="line"/>
      <point x="128" y="384" type="line"/>
    </contour>
  </outline>
</glyph>
<glyph name="circle" format="2">
  <advance width="640"/>
  <unicode hex="25CB"/>
  <outline>
    <contour>
      <point x="128" y="128" type="line"/>
      <point x="128" y="256" type="line"/>
      <point x="384" y="256" type="line"/>
      <point x="384" y="128" type="line"/>
    </contour>
    <contour>
      <point x="128" y="256" type="line"/>
      <point x="0" y="256" type="line"/>
      <point x="0" y="512" type="line"/>
      <point x="128" y="512" type="line"/>
    </contour>
    <contour>
      <point x="384" y="256" type="line"/>
      <point x="384" y="512" type="line"/>
      <point x="512" y="512" type="line"/>
      <point x="512" y="256" type="line"/>
    </contour>
    <contour>
      <point x="128" y="512" type="line"/>
      <point x="128" y="640" type="line"/>
      <point x="384" y="640" type="line"/>
      <point x="384" y="512" type="line"/>
    </contour>
  </outline>
</glyph>
<glyph name="uni27E8" format="2">
  <advance width="384"/>
  <unicode hex="27E8"/>
  <outline>
    <contour>
      <point x="256" y="0" type="line"/>
      <point x="128" y="0" type="line"/>
      <point x="128" y="256" type="line"/>
      <point x="256" y="256" type="line"/>
    </contour>
    <contour>
      <point x="128" y="384" type="line"/>
      <point x="128" y="256" type="line"/>
      <point x="0" y="256" type="line"/>
      <point x="0" y="384" type="line"/>
    </contour>
    <contour>
      <point x="256" y="384" type="line"/>
      <point x="128" y="384" type="line"/>
      <point x="128" y="640" type="line"/>
      <point x="256" y="640" type="line"/>
    </contour>
  </outline>
</glyph>
<glyph name="uni2C6D" format="2">
  <advance width="640"/>
  <unicode hex="2C6D"/>
  <outline>
    <contour>
      <point x="128" y="0" type="line"/>
      <point x="128" y="128" type="line"/>
      <point x="384" y="128" type="line"/>
      <point x="384" y="512" type="line"/>
      <point x="128" y="512" type="line"/>
      <point x="128" y="640" type="line"/>
      <point x="512" y="640" type="line"/>
      <point x="512" y="0" type="line"/>
    </contour>
    <contour>
      <point x="128" y="128" type="line"/>
      <point x="0" y="128" type="line"/>
      <point x="0" y="512" type="line"/>
      <point x="128" y="512" type="line"/>
    </contour>
  </outline>
</glyph>
<glyph name="uniA789" format="2">
  <advance width="256"/>
  <unicode hex="A789"/>
  <outline>
    <contour>
      <point x="0" y="0" type="line"/>
      <point x="0" y="128" type="line"/>
      <point x="128" y="128" type="line"/>
      <point x="128" y="0" type="line"/>
    </contour>
    <contour>
      <point x="0" y="384" type="line"/>
      <point x="0" y="512" type="line"/>
      <point x="128" y="512" type="line"/>
      <point x="128" y="384" type="line"/>
    </contour>
  </outline>
</glyph>
<glyph name="uniA78B" format="2">
  <advance width="256"/>
  <unicode hex="A78B"/>
  <outline>
    <contour>
      <point x="128" y="256" type="line"/>
      <point x="0" y="256" type="line"/>
      <point x="0" y="640" type="line"/>
      <point x="128" y="640" type="line"/>
    </contour>
  </outline>
</glyph>
<glyph name="uniA78C" format="2">
  <advance width="256"/>
  <unicode hex="A78C"/>
  <outline>
    <contour>
      <point x="128" y="384" type="line"/>
      <point x="0" y="384" type="line"/>
      <point x="0" y="640" type="line"/>
      <point x="128" y="640" type="line"/>
    </contour>
    <contour>
      <point x="0" y="1280" type="line"/>
      <point x="0" y="1408" type="line"/>
      <point x="128" y="1408" type="line"/>
      <point x="128" y="1280" type="line"/>
    </contour>
  </outline>
</glyph>
<glyph name="uniA7A9" format="2">
  <advance width="640"/>
  <unicode hex="A7A9"/>
  <outline>
    <contour>
      <point x="384" y="128" type="line"/>
      <point x="384" y="0" type="line"/>
      <point x="128" y="0" type="line"/>
      <point x="128" y="128" type="line"/>
    </contour>
    <contour>
      <point x="512" y="128" type="line"/>
      <point x="384" y="128" type="line"/>
      <point x="384" y="256" type="line"/>
      <point x="512" y="256" type="line"/>
    </contour>
    <contour>
      <point x="0" y="256" type="line"/>
      <point x="0" y="384" type="line"/>
      <point x="256" y="384" type="line"/>
      <point x="256" y="512" type="line"/>
      <point x="512" y="512" type="line"/>
      <point x="512" y="384" type="line"/>
      <point x="384" y="384" type="line"/>
      <point x="384" y="256" type="line"/>
    </contour>
  </outline>
</glyph>
<glyph name="uniA7AE" format="2">
  <advance width="512"/>
  <unicode hex="A7AE"/>
  <outline>
    <contour>
      <point x="256" y="128" type="line"/>
      <point x="384" y="128" type="line"/>
      <point x="384" y="0" type="line"/>
      <point x="0" y="0" type="line"/>
      <point x="0" y="128" type="line"/>
      <point x="128" y="128" type="line"/>
      <point x="128" y="512" type="line"/>
      <point x="0" y="512" type="line"/>
      <point x="0" y="640" type="line"/>
      <point x="384" y="640" type="line"/>
      <point x="384" y="512" type="line"/>
      <point x="256" y="512" type="line"/>
    </contour>
  </outline>
</glyph>
<glyph name="uniA7B9" format="2">
  <advance width="640"/>
  <unicode hex="A7B9"/>
  <outline>
    <contour>
      <point x="0" y="0" type="line"/>
      <point x="128" y="0" type="line"/>
      <point x="128" y="-128" type="line"/>
      <point x="0" y="-128" type="line"/>
    </contour>
    <contour>
      <point x="128" y="128" type="line"/>
      <point x="0" y="128" type="line"/>
      <point x="0" y="512" type="line"/>
      <point x="128" y="512" type="line"/>
    </contour>
    <contour>
      <point x="256" y="128" type="line"/>
      <point x="256" y="512" type="line"/>
      <point x="384" y="512" type="line"/>
      <point x="384" y="0" type="line"/>
      <point x="128" y="0" type="line"/>
      <point x="128" y="128" type="line"/>
    </contour>
    <contour>
      <point x="384" y="512" type="line"/>
      <point x="384" y="640" type="line"/>
      <point x="512" y="640" type="line"/>
      <point x="512" y="512" type="line"/>
    </contour>
  </outline>
</glyph>
